<?xml version="1.0" encoding="UTF-8" standalone="no"?>
<!-- Created with Inkscape (http://www.inkscape.org/) -->

<svg
   xmlns:dc="http://purl.org/dc/elements/1.1/"
   xmlns:cc="http://creativecommons.org/ns#"
   xmlns:rdf="http://www.w3.org/1999/02/22-rdf-syntax-ns#"
   xmlns:svg="http://www.w3.org/2000/svg"
   xmlns="http://www.w3.org/2000/svg"
   version="1.1"
   width="1000"
   height="1000"
   id="svg2">
  <defs
     id="defs4" />
  <metadata
     id="metadata7">
    <rdf:RDF>
      <cc:Work
         rdf:about="">
        <dc:format>image/svg+xml</dc:format>
        <dc:type
           rdf:resource="http://purl.org/dc/dcmitype/StillImage" />
        <dc:title></dc:title>
        <cc:license
           rdf:resource="http://creativecommons.org/licenses/publicdomain/" />
      </cc:Work>
      <cc:License
         rdf:about="http://creativecommons.org/licenses/publicdomain/">
        <cc:permits
           rdf:resource="http://creativecommons.org/ns#Reproduction" />
        <cc:permits
           rdf:resource="http://creativecommons.org/ns#Distribution" />
        <cc:permits
           rdf:resource="http://creativecommons.org/ns#DerivativeWorks" />
      </cc:License>
    </rdf:RDF>
  </metadata>
  <path
     d="m 454.28125,53.96875 -0.34375,149.125 83.71875,0.1875 0.3125,-149.125 z M 35.84375,194.125 l -14.4375,82.4375 8.375,1.46875 0.5625,0.0937 7.625,1.4375 0.59375,0.125 7.46875,1.53125 0.1875,0.0312 0.40625,0.0937 7.875,1.75 7.125,1.65625 0.5625,0.125 0.0625,0.0312 6.9375,1.75 0.625,0.15625 7.4375,2 6.625,1.875 0.03125,0 0.625,0.1875 7.125,2.15625 6.3125,2 0,0.0312 6.8125,2.28125 6.6875,2.375 0.25,0.0937 0.4375,0.15625 6.53125,2.46875 5.71875,2.25 0.40625,0.15625 0.28125,0.125 6.28125,2.625 5.4375,2.375 0.5625,0.25 0.125,0.0625 6,2.75 5.1875,2.46875 0.5625,0.28125 0.125,0.0625 5.0625,2.5625 0.6875,0.34375 1.75,0.9375 39,-74.0625 -2.4375,-1.28125 -0.34375,-0.1875 -0.34375,-0.1875 -6.4375,-3.21875 -0.34375,-0.1875 -0.34375,-0.15625 -6.5625,-3.15625 -0.34375,-0.15625 -0.34375,-0.15625 -6.6875,-3.0625 -0.34375,-0.15625 L 171,233.5625 l -6.8125,-2.96875 -0.34375,-0.15625 -0.34375,-0.15625 -6.9375,-2.875 -0.34375,-0.15625 -0.34375,-0.125 -7.0625,-2.8125 -0.34375,-0.125 -0.34375,-0.125 -7.21875,-2.71875 -0.34375,-0.125 -0.3125,-0.0937 -7.34375,-2.625 -0.34375,-0.125 -0.34375,-0.0937 -7.46875,-2.53125 -0.34375,-0.125 -0.3125,-0.0937 -7.625,-2.4375 -0.3125,-0.0937 -0.34375,-0.125 -7.75,-2.34375 -0.34375,-0.0937 -0.3125,-0.0937 L 99.5,208.125 99.1875,208.03125 98.875,207.9375 90.8125,205.78125 90.5,205.6875 90.1875,205.625 82,203.5625 81.6875,203.5 l -0.28125,-0.0937 -8.34375,-1.9375 -0.3125,-0.0937 -0.3125,-0.0625 -8.46875,-1.84375 -0.3125,-0.0937 -0.28125,-0.0312 -8.625,-1.78125 -0.3125,-0.0625 -0.28125,-0.0625 -8.78125,-1.65625 -0.3125,-0.0625 -0.28125,-0.0312 z m 918.59375,0 -8.9375,1.5625 -0.28125,0.0312 -0.28125,0.0625 -8.8125,1.65625 -0.28125,0.0625 -0.28125,0.0625 -8.65625,1.78125 -0.28125,0.0312 -0.3125,0.0937 -8.46875,1.84375 -0.3125,0.0625 -0.3125,0.0937 -8.3125,1.9375 -0.3125,0.0937 -0.3125,0.0625 -8.1875,2.0625 -0.3125,0.0625 -0.3125,0.0937 -8.0625,2.15625 -0.3125,0.0937 -0.3125,0.0937 -7.90625,2.21875 -0.3125,0.0937 -0.3125,0.0937 -7.78125,2.34375 -0.3125,0.125 -0.34375,0.0937 -7.625,2.4375 -0.3125,0.0937 -0.34375,0.125 -7.46875,2.53125 -0.34375,0.0937 -0.3125,0.125 -7.375,2.625 -0.3125,0.0937 -0.34375,0.125 -7.21875,2.71875 -0.34375,0.125 -0.3125,0.125 -7.09375,2.8125 -0.34375,0.125 -0.34375,0.15625 -6.9375,2.875 -0.34375,0.15625 -0.34375,0.15625 -6.8125,2.96875 -0.34375,0.15625 -0.34375,0.15625 -6.6875,3.0625 -0.34375,0.15625 -0.34375,0.15625 -6.53125,3.15625 -0.375,0.15625 -0.34375,0.1875 -6.40625,3.21875 -0.34375,0.1875 -0.34375,0.1875 -2.46875,1.28125 39,74.0625 1.78125,-0.9375 0.6875,-0.34375 5.03125,-2.5625 0.1875,-0.0937 0.5,-0.25 5.1875,-2.46875 6,-2.75 0.125,-0.0625 0.5625,-0.25 5.4375,-2.375 6.28125,-2.625 0.28125,-0.0937 0.40625,-0.1875 5.71875,-2.25 6.5625,-2.46875 0.65625,-0.25 6.03125,-2.15625 0.65625,-0.21875 6.8125,-2.28125 0,-0.0312 6.3125,-2 7.125,-2.15625 0.625,-0.1875 0.0312,0 6.625,-1.875 7.4375,-2 0.625,-0.15625 6.9375,-1.75 0.0625,-0.0312 0.5625,-0.125 7.125,-1.65625 7.90625,-1.75 0.4375,-0.0937 0.15625,-0.0312 7.4375,-1.53125 0.59375,-0.125 7.625,-1.4375 0.5625,-0.0937 8.375,-1.46875 z m -500.65625,92.6875 -0.375,167.40625 83.6875,0.1875 0.375,-167.4375 z m -180.96875,11.3125 -54.875,63.1875 0.65625,0.5625 0.4375,0.375 0.15625,0.15625 3.625,3.25 0.59375,0.5625 3.53125,3.3125 0.5625,0.5625 3.46875,3.375 0.40625,0.4375 0.15625,0.125 3.375,3.40625 0.5625,0.5625 3.3125,3.5 0.0937,0.125 0.4375,0.4375 3.25,3.5625 0.375,0.4375 0.125,0.125 3.1875,3.625 0.5,0.5625 3.59375,4.25 3.0625,3.71875 0.40625,0.53125 0.0625,0.0625 3,3.8125 0.15625,0.1875 0.28125,0.375 2.9375,3.875 0.4375,0.5625 3.28125,4.53125 2.84375,3.96875 0.3125,0.46875 0.0937,0.125 2.75,4.0625 0.1875,0.28125 0.1875,0.28125 2.71875,4.125 0.375,0.59375 2.65625,4.1875 0.34375,0.5625 2.625,4.28125 0.0312,0.0312 0.3125,0.53125 2.5625,4.3125 0.3125,0.5625 2.5,4.40625 0.15625,0.3125 0.15625,0.25 2.75,5.03125 2.40625,4.53125 0.28125,0.53125 2.375,4.625 0.28125,0.53125 2.3125,4.6875 0.25,0.53125 2.25,4.75 0.0937,0.15625 0.15625,0.375 2.21875,4.8125 2.40625,5.40625 0,0.0312 0.0312,0.0625 0.1875,0.40625 32.1875,-14.3125 44.5625,-19.125 -0.0312,-0.0625 -0.0937,-0.25 -0.125,-0.25 -2.625,-5.90625 -0.0937,-0.25 -0.125,-0.25 -2.6875,-5.84375 -0.125,-0.25 -0.125,-0.25 -2.78125,-5.8125 -0.125,-0.25 -0.125,-0.25 -2.8125,-5.75 L 367.8125,423 l -0.125,-0.25 -2.90625,-5.6875 -0.15625,-0.28125 -0.125,-0.28125 -3,-5.625 -0.125,-0.28125 -0.15625,-0.25 -3.0625,-5.59375 -0.15625,-0.28125 -0.15625,-0.25 -3.15625,-5.53125 -0.15625,-0.28125 -0.15625,-0.28125 -3.21875,-5.46875 -0.1875,-0.28125 -0.15625,-0.28125 -3.3125,-5.40625 -0.1875,-0.28125 -0.15625,-0.28125 -3.40625,-5.34375 -0.1875,-0.28125 -0.1875,-0.3125 -3.46875,-5.28125 -0.1875,-0.28125 -0.1875,-0.28125 -3.5625,-5.21875 -0.1875,-0.3125 -0.21875,-0.28125 -3.65625,-5.15625 -0.1875,-0.28125 -0.21875,-0.3125 -3.75,-5.09375 -0.21875,-0.28125 -0.21875,-0.3125 -3.8125,-5.03125 -0.21875,-0.28125 -0.25,-0.28125 -3.90625,-4.96875 -0.21875,-0.3125 -0.25,-0.28125 -4,-4.90625 -0.25,-0.28125 -0.25,-0.3125 -4.09375,-4.8125 -0.25,-0.3125 -0.28125,-0.28125 -4.1875,-4.75 -0.25,-0.3125 L 304.8125,329.6875 300.53125,325 300.25,324.6875 300,324.40625 l -4.40625,-4.625 -0.28125,-0.28125 -0.28125,-0.28125 -4.5,-4.5625 -0.28125,-0.28125 -0.28125,-0.28125 -4.59375,-4.46875 -0.28125,-0.28125 -0.28125,-0.28125 -4.71875,-4.40625 -0.28125,-0.28125 -0.3125,-0.28125 -4.8125,-4.34375 -0.28125,-0.28125 -0.3125,-0.25 z m 444.65625,0 -1.28125,1.09375 -0.28125,0.25 -0.3125,0.28125 -4.8125,4.34375 -0.28125,0.28125 -0.3125,0.28125 -4.6875,4.40625 -0.3125,0.28125 -0.28125,0.28125 -4.59375,4.46875 -0.28125,0.28125 -0.28125,0.28125 -4.5,4.5625 -0.28125,0.28125 -0.28125,0.28125 -4.375,4.625 -0.28125,0.28125 L 689.75,325 l -4.28125,4.6875 -0.28125,0.28125 -0.25,0.3125 -4.1875,4.75 -0.25,0.28125 -0.25,0.3125 -4.125,4.8125 -0.25,0.3125 -0.21875,0.28125 -4.03125,4.90625 -0.21875,0.28125 -0.25,0.3125 -3.90625,4.96875 -0.21875,0.28125 -0.25,0.28125 -3.8125,5.03125 -0.21875,0.3125 -0.21875,0.28125 -3.75,5.09375 -0.1875,0.3125 -0.21875,0.28125 -3.65625,5.15625 -0.1875,0.28125 -0.21875,0.3125 -3.5625,5.21875 -0.1875,0.28125 -0.1875,0.28125 -3.46875,5.28125 -0.1875,0.3125 -0.1875,0.28125 -3.375,5.34375 -0.1875,0.28125 -0.1875,0.28125 -3.3125,5.40625 -0.15625,0.28125 -0.1875,0.28125 -3.21875,5.46875 -0.15625,0.28125 -0.15625,0.28125 -3.15625,5.53125 -0.15625,0.25 -0.15625,0.28125 -3.0625,5.59375 -0.125,0.25 -0.15625,0.28125 -3,5.625 -0.125,0.28125 -0.15625,0.28125 -2.90625,5.6875 -0.125,0.25 -0.125,0.28125 -2.84375,5.75 -0.125,0.25 -0.125,0.25 -2.78125,5.8125 -0.125,0.25 -0.0937,0.25 -2.71875,5.84375 -0.0937,0.25 -0.125,0.25 -2.625,5.90625 -0.0937,0.25 -0.125,0.25 -0.0312,0.0625 44.5625,19.125 32.1875,14.3125 0.1875,-0.40625 0.0312,-0.0625 0,-0.0312 2.1875,-4.90625 0.21875,-0.5 2.21875,-4.8125 0.15625,-0.3125 0.0937,-0.21875 2.53125,-5.28125 2.3125,-4.6875 0.25,-0.53125 2.375,-4.625 0.28125,-0.53125 2.40625,-4.53125 2.75,-5.03125 0.125,-0.1875 0.1875,-0.375 2.5,-4.40625 0.34375,-0.5625 2.53125,-4.3125 0.3125,-0.53125 0.0312,-0.0312 2.625,-4.28125 0.34375,-0.5625 2.65625,-4.1875 0.375,-0.59375 2.71875,-4.125 0.15625,-0.21875 0.21875,-0.34375 2.78125,-4.0625 0.0312,-0.0312 0.375,-0.5625 2.8125,-3.96875 3.28125,-4.53125 0.4375,-0.5625 3.40625,-4.4375 2.96875,-3.8125 0.0312,-0.0625 0.4375,-0.53125 3.0625,-3.71875 0.34375,-0.40625 0.15625,-0.1875 3.09375,-3.65625 0.5,-0.5625 3.71875,-4.1875 3.78125,-4.125 3.28125,-3.5 0.5625,-0.5625 3.375,-3.40625 0.15625,-0.125 0.40625,-0.4375 3.46875,-3.375 0.5625,-0.5625 3.53125,-3.3125 0.59375,-0.5625 3.625,-3.25 0.0937,-0.0937 0.5,-0.4375 0.6875,-0.5625 z m -308.0625,234.5 -80.5,22.875 0.5,1.78125 0.0937,0.34375 1.59375,5.84375 0.0937,0.34375 1.65625,6.25 0.0312,0 1.53125,5.96875 0.0625,0.3125 1.5,6.03125 0.0937,0.3125 1.4375,5.96875 0.0937,0.4375 2.875,12.5 0.0625,0.34375 0.0625,0.21875 2.71875,12.59375 2.71875,13.3125 0.0937,0.4375 2.5,13.03125 2.5,13.625 0.0625,0.375 2.3125,13.40625 0.0625,0.3125 2.25,13.59375 0.0312,0.28125 2.1875,13.78125 -0.0312,0 2.15625,14.15625 0.0312,0.21875 0.4375,2.875 82.8125,-12.09375 -0.4375,-3.09375 -0.0312,-0.0937 0,-0.125 -2.1875,-14.375 -0.0312,-0.125 0,-0.125 -2.28125,-14.3125 0,-0.15625 -0.0312,-0.125 -2.34375,-14.21875 -0.0312,-0.15625 -0.0312,-0.15625 -2.4375,-14.125 -0.0312,-0.1875 -0.0312,-0.15625 -2.53125,-14 -0.0625,-0.21875 -0.0312,-0.1875 -2.6563,-13.9063 -0.0625,-0.21875 -0.0312,-0.21875 -2.8125,-13.75 -0.0625,-0.25 -0.0312,-0.25 -2.96875,-13.625 -0.0312,-0.28125 -0.0625,-0.25 -3.125,-13.5 -0.0312,-0.21875 -0.0625,-0.21875 -1.625,-6.6875 -0.0312,-0.15625 -0.0312,-0.15625 -1.65625,-6.65625 -0.0312,-0.15625 -0.0625,-0.15625 -1.6875,-6.59375 -0.0625,-0.1875 -0.0312,-0.15625 -1.75,-6.5625 -0.0312,-0.1875 -0.0625,-0.15625 -1.78125,-6.53125 -0.0625,-0.1875 -0.0625,-0.1875 z m 171.46875,0 -0.59375,2.09375 -0.0625,0.1875 -0.0312,0.1875 -1.8125,6.53125 -0.0312,0.15625 -0.0625,0.1875 -1.75,6.5625 -0.0312,0.15625 -0.0625,0.1875 -1.6875,6.59375 -0.0312,0.15625 -0.0625,0.15625 -1.65625,6.65625 -0.0312,0.15625 -0.0312,0.15625 -1.625,6.6875 -0.0312,0.21875 -0.0625,0.21875 -3.09375,13.5 -0.0625,0.25 -0.0625,0.28125 -2.96875,13.625 -0.0312,0.25 -0.0625,0.25 -2.8125,13.75 -0.0312,0.21875 -0.0312,0.21875 -2.6875,13.90625 -0.0312,0.1875 -0.0312,0.21875 -2.5625,14 -0.0312,0.15625 -0.0312,0.1875 -2.4375,14.125 -0.0312,0.15625 -0.0312,0.15625 -2.34375,14.21875 -0.0312,0.125 0,0.15625 -2.25,14.3125 -0.0312,0.125 -0.0312,0.125 -2.15625,14.375 -0.0312,0.125 0,0.0937 -0.46875,3.09375 82.84375,12.09375 0.40625,-2.875 0,-0.0312 0.0312,-0.1875 2.125,-13.90625 0.0312,-0.25 2.21875,-14.0625 2.21875,-13.59375 0.0625,-0.3125 2.3125,-13.40625 0.0625,-0.375 2.5,-13.625 2.5,-13.03125 0.0937,-0.4375 2.71875,-13.3125 2.71875,-12.59375 0.0625,-0.21875 0.0625,-0.34375 2.875,-12.5 0.0937,-0.4375 1.4375,-5.96875 0.0937,-0.3125 1.5,-6.03125 0.0937,-0.3125 1.5,-5.96875 0.0312,0 1.65625,-6.25 0.0937,-0.34375 1.59375,-5.84375 0.0937,-0.34375 0.5,-1.78125 z m -127.65625,5.28125 -0.375,167.40625 83.71875,0.1875 0.375,-167.40625 z M 372,796.5625 l 2.21875,16.625 0.0312,0.0625 0,0.0312 4.03125,29.71875 0,0.0937 0,0.0625 2.09375,14.90625 0,0.0625 0,0.0625 2.125,14.90625 0.0312,0.0937 0,0.0937 2.1875,14.90625 0.0312,0.125 0,0.0937 2.28125,14.90625 0.0312,0.125 0,0.125 2.375,14.90625 0,0.125 0.0312,0.15625 2.46875,14.875 0.0312,0.15625 0.0312,0.15625 2.5625,14.875 0.0312,0.1875 0.0312,0.15625 2.68795,14.844 c 60.65266,-25.45754 130.43243,-28.25436 195.65625,0 l 2.6875,-14.84375 0.0312,-0.15625 0.0312,-0.1875 2.59375,-14.875 0.0312,-0.15625 0,-0.15625 2.46875,-14.875 0.0312,-0.15625 0,-0.125 2.375,-14.90625 0.0312,-0.125 0,-0.125 2.28125,-14.90625 0,-0.0937 0.0312,-0.125 2.1875,-14.90625 0,-0.0937 0.0312,-0.0937 2.125,-14.90625 0,-0.0625 0,-0.0625 2.09375,-14.90625 0,-0.0625 0,-0.0937 4.03125,-29.71875 0.0312,-0.0312 0,-0.0625 2.21875,-16.625 C 516.70937,756.06284 469.45206,759.08997 372,796.5625 z"
     id="path5"
     style="font-size:medium;font-style:normal;font-variant:normal;font-weight:normal;font-stretch:normal;text-indent:0;text-align:start;text-decoration:none;line-height:normal;letter-spacing:normal;word-spacing:normal;text-transform:none;direction:ltr;block-progression:tb;writing-mode:lr-tb;text-anchor:start;baseline-shift:baseline;color:#000000;fill:#ffffff;fill-opacity:1;stroke:#000000;stroke-width:4;stroke-miterlimit:4;stroke-opacity:1;stroke-dasharray:none;marker:none;visibility:visible;display:inline;overflow:visible;enable-background:accumulate;font-family:Sans;-inkscape-font-specification:Sans" />
</svg>
