<?xml version="1.0" encoding="UTF-8" standalone="no"?>
<!-- Created with Inkscape (http://www.inkscape.org/) -->

<svg
   xmlns:dc="http://purl.org/dc/elements/1.1/"
   xmlns:cc="http://creativecommons.org/ns#"
   xmlns:rdf="http://www.w3.org/1999/02/22-rdf-syntax-ns#"
   xmlns:svg="http://www.w3.org/2000/svg"
   xmlns="http://www.w3.org/2000/svg"
   version="1.1"
   width="1000"
   height="1000"
   id="svg2">
  <defs
     id="defs4" />
  <metadata
     id="metadata7">
    <rdf:RDF>
      <cc:Work
         rdf:about="">
        <dc:format>image/svg+xml</dc:format>
        <dc:type
           rdf:resource="http://purl.org/dc/dcmitype/StillImage" />
        <dc:title></dc:title>
        <cc:license
           rdf:resource="http://creativecommons.org/licenses/publicdomain/" />
      </cc:Work>
      <cc:License
         rdf:about="http://creativecommons.org/licenses/publicdomain/">
        <cc:permits
           rdf:resource="http://creativecommons.org/ns#Reproduction" />
        <cc:permits
           rdf:resource="http://creativecommons.org/ns#Distribution" />
        <cc:permits
           rdf:resource="http://creativecommons.org/ns#DerivativeWorks" />
      </cc:License>
    </rdf:RDF>
  </metadata>
  <path
     d="m 588.98304,536.01697 a 99.576271,99.576271 0 1 1 -199.15254,0 99.576271,99.576271 0 1 1 199.15254,0 z"
     transform="matrix(0.83313866,0,0,0.83313866,88.83179,54.896413)"
     id="path3825"
     style="fill:#ffffff;fill-opacity:1;stroke:#000000;stroke-width:4.80112171;stroke-linecap:round;stroke-linejoin:round;stroke-miterlimit:4;stroke-opacity:1;stroke-dasharray:none;stroke-dashoffset:0" />
  <path
     d="m -864.40677,-165.25422 -444.66123,-94.96966 -444.6613,-94.9696 304.5767,-337.60312 304.5768,-337.6032 140.0845,432.57281 z"
     transform="matrix(0.22065259,-0.19742047,0.19742047,0.22065259,1149.0963,368.24786)"
     id="path3827"
     style="fill:#ffffff;fill-opacity:1;stroke:#000000;stroke-width:13.50993633;stroke-linecap:round;stroke-linejoin:round;stroke-miterlimit:4;stroke-opacity:1;stroke-dasharray:none;stroke-dashoffset:0" />
  <path
     d="m -864.40677,-165.25422 -444.66123,-94.96966 -444.6613,-94.9696 304.5767,-337.60312 304.5768,-337.6032 140.0845,432.57281 z"
     transform="matrix(-0.22065259,-0.19742047,-0.19742047,0.22065259,-155.94537,368.24786)"
     id="path3827-6"
     style="fill:#ffffff;fill-opacity:1;stroke:#000000;stroke-width:13.50993633;stroke-linecap:round;stroke-linejoin:round;stroke-miterlimit:4;stroke-opacity:1;stroke-dasharray:none;stroke-dashoffset:0" />
  <path
     d="m -864.40677,-165.25422 -444.66123,-94.96966 -444.6613,-94.9696 304.5767,-337.60312 304.5768,-337.6032 140.0845,432.57281 z"
     transform="matrix(0.19742047,0.22065259,-0.22065259,0.19742047,631.12726,1164.251)"
     id="path3827-8"
     style="fill:#ffffff;fill-opacity:1;stroke:#000000;stroke-width:13.50993633;stroke-linecap:round;stroke-linejoin:round;stroke-miterlimit:4;stroke-opacity:1;stroke-dasharray:none;stroke-dashoffset:0" />
  <path
     d="m -864.40677,-165.25422 -444.66123,-94.96966 -444.6613,-94.9696 304.5767,-337.60312 304.5768,-337.6032 140.0845,432.57281 z"
     transform="matrix(-0.19742047,-0.22065259,0.22065259,-0.19742047,364.67724,-155.17161)"
     id="path3827-81"
     style="fill:#ffffff;fill-opacity:1;stroke:#000000;stroke-width:13.50993633;stroke-linecap:round;stroke-linejoin:round;stroke-miterlimit:4;stroke-opacity:1;stroke-dasharray:none;stroke-dashoffset:0" />
</svg>
