<?xml version="1.0" encoding="UTF-8" standalone="no"?>
<!-- Created with Inkscape (http://www.inkscape.org/) -->

<svg
   xmlns:dc="http://purl.org/dc/elements/1.1/"
   xmlns:cc="http://creativecommons.org/ns#"
   xmlns:rdf="http://www.w3.org/1999/02/22-rdf-syntax-ns#"
   xmlns:svg="http://www.w3.org/2000/svg"
   xmlns="http://www.w3.org/2000/svg"
   version="1.1"
   width="1000"
   height="1000"
   id="svg2">
  <defs
     id="defs4" />
  <metadata
     id="metadata7">
    <rdf:RDF>
      <cc:Work
         rdf:about="">
        <dc:format>image/svg+xml</dc:format>
        <dc:type
           rdf:resource="http://purl.org/dc/dcmitype/StillImage" />
        <dc:title></dc:title>
        <cc:license
           rdf:resource="http://creativecommons.org/licenses/publicdomain/" />
      </cc:Work>
      <cc:License
         rdf:about="http://creativecommons.org/licenses/publicdomain/">
        <cc:permits
           rdf:resource="http://creativecommons.org/ns#Reproduction" />
        <cc:permits
           rdf:resource="http://creativecommons.org/ns#Distribution" />
        <cc:permits
           rdf:resource="http://creativecommons.org/ns#DerivativeWorks" />
      </cc:License>
    </rdf:RDF>
  </metadata>
  <path
     d="m 733.76748,25.318326 -70.75,102.812504 C 613.92227,108.48798 560.34663,97.662076 504.23623,97.662076 c -236.23841,0 -427.750001,191.511594 -427.750001,427.750004 0,236.23841 191.511591,427.75 427.750001,427.75 115.99511,0 221.19717,-46.18933 298.25,-121.15625 L 672.64248,733.78708 c -46.01775,37.23755 -104.60073,59.5625 -168.40625,59.5625 -147.9735,0 -267.9375,-119.964 -267.9375,-267.9375 0,-147.9735 119.964,-267.90625 267.9375,-267.90625 22.18635,0 43.72728,2.69752 64.34375,7.78125 l -75.0625,109.0625 450.84375,32.5625 L 733.76748,25.318326 z"
     id="path3005"
     style="fill:#ffffff;fill-opacity:1;stroke:#000000;stroke-width:4;stroke-linecap:round;stroke-linejoin:round;stroke-miterlimit:4;stroke-opacity:1;stroke-dasharray:none;stroke-dashoffset:0" />
</svg>
